{"title":"The Other Guys TS XViD - IMAGiNE","uid":5752427,"size":953843763,"categoryP":"video","categoryS":"movies","magnet":"?xt=urn:btih:ea3a7595337a2c426651cad7bd9ea9274bcb25b7&amp;dn=The+Other+Guys+TS+XViD+-+IMAGiNE&amp;tr=udp%3A%2F%2Ftracker.openbittorrent.com%3A80&amp;tr=udp%3A%2F%2Fopen.demonii.com%3A1337&amp;tr=udp%3A%2F%2Ftracker.coppersurfer.tk%3A6969&amp;tr=udp%3A%2F%2Fexodus.desync.com%3A6969","seeders":0,"leechers":0,"uploader":"hiest","files":-1,"time":1281446866,"description":"Another Fine Release Brought to you from - IMAGiNE \n\n\n******************************************************************************************************************** \nThe Other Guys TS XViD - IMAGiNE\n********************************************************************************************************************\n\nRipper ...........:IMAGiNE IMDB Rating.......:7.4/10 \nVideo Codec.......:XVID Release Date......:09/08/10\nAudio Codec.......:MP3 Theatre Date......:06/08/10\nAudio Bitrate.....:128 Runtime...........:1h 41mn\nSubtitles.........:NIL Language..........:ENGLISH\nResolution........:640 x 272 IMDb URL..........:http://www.imdb.com/title/tt1386588/\n\n\nDETAILS:\n\nVideo\nID : 0\nFormat : MPEG-4 Visual\nFormat profile : Advanced Simple@L5\nFormat settings, BVOP : Yes\nFormat settings, QPel : No\nFormat settings, GMC : No warppoints\nFormat settings, Matrix : Default (MPEG)\nMuxing mode : Packed bitstream\nCodec ID : XVID\nCodec ID/Hint : XviD\nDuration : 1h 41mn\nBit rate : 1 100 Kbps\nWidth : 640 pixels\nHeight : 272 pixels\nDisplay aspect ratio : 2.35:1\nFrame rate : 30.000 fps\nColor space : YUV\nChroma subsampling : 4:2:0\nBit depth : 8 bits\nScan type : Progressive\nBits/(Pixel*Frame) : 0.211\nStream size : 796 MiB (89%)\nWriting library : XviD 1.2.1 (UTC 2008-12-04)\n\nAudio\nID : 1\nFormat : MPEG Audio\nFormat version : Version 1\nFormat profile : Layer 3\nCodec ID : 55\nCodec ID/Hint : MP3\nDuration : 1h 41mn\nBit rate mode : Constant\nBit rate : 128 Kbps\nChannel(s) : 2 channels\nSampling rate : 44.1 KHz\nStream size : 92.6 MiB (10%)\nAlignment : Split accross interleaves\nInterleave, duration : 33 ms (1.00 video frame)\nInterleave, preload duration : 500 ms\n\n\nNOTES:\n\nIMAGiNE bringing you another release.....The Other Guys\n\nRight sources used was the cam video from Hogs and some new line audio off KrackerMan....thanks to all \nWorkdone....We took the and made a script to correct the white balance,brightness and contrast.\nThen dropped that into vdub and used some more filters ...inc rgb eq,smoother,sharpen,hue,intes and a few more.\nNow the audio was some pretty good LiNE audio ,but needed to be cut and synced and then filtered some.\nOnce done it was a just case of muxing together and packing it up .\n\nEnjoy...\n\n\n\n\nScreenshots:\n &lt;a href=&quot;\nhttp://postimg.com/image/20000/19463.jpg&quot; rel=&quot;nofollow&quot; target=&quot;_NEW&quot;&gt;\nhttp://postimg.com/image/20000/19463.jpg&lt;/a&gt;","torrent":{"xt":"urn:btih:ea3a7595337a2c426651cad7bd9ea9274bcb25b7","amp;dn":"The+Other+Guys+TS+XViD+-+IMAGiNE","amp;tr":["udp%3A%2F%2Ftracker.openbittorrent.com%3A80","udp%3A%2F%2Fopen.demonii.com%3A1337","udp%3A%2F%2Ftracker.coppersurfer.tk%3A6969","udp%3A%2F%2Fexodus.desync.com%3A6969"],"infoHash":"ea3a7595337a2c426651cad7bd9ea9274bcb25b7","infoHashBuffer":{"type":"Buffer","data":[234,58,117,149,51,122,44,66,102,81,202,215,189,158,169,39,75,203,37,183]},"announce":[],"urlList":[]}}